<svg xmlns="http://www.w3.org/2000/svg" height="48" viewBox="0 96 960 960" width="48"><path d="M404.752 734Q438 734 459.5 711.768q21.5-22.233 21.5-54.644 0-32.824-21.252-54.974t-54-22.15Q373 580 350.5 601.88q-22.5 21.881-22.5 54.5 0 32.62 22.196 55.12t54.556 22.5Zm149.921 0Q587 734 609.5 711.768q22.5-22.233 22.5-54.644 0-32.824-22.173-54.974-22.172-22.15-54.5-22.15Q523 580 501 601.88q-22 21.881-22 54.5 0 32.62 21.673 55.12 21.672 22.5 54 22.5Zm-75-177Q512 557 534.5 535.54t22.5-54.5q0-33.04-22.173-55.54-22.172-22.5-54.5-22.5Q448 403 425.5 425.256t-22.5 54.7q0 33.744 22.173 55.394 22.172 21.65 54.5 21.65Zm.272 440q-87.053 0-164.146-32.604-77.094-32.603-134.343-89.852-57.249-57.249-89.852-134.41Q59 662.972 59 575.638q0-87.228 32.662-163.934 32.663-76.706 90.203-134.253 57.54-57.547 134.252-90.499Q392.829 154 479.836 154q87.369 0 164.544 32.858 77.175 32.858 134.401 90.257 57.225 57.399 90.222 134.514Q902 488.743 902 576.276q0 87.468-32.952 163.882t-90.499 133.781q-57.547 57.368-134.421 90.214Q567.255 997 479.945 997Zm.326-91q136.242 0 232.985-96.387Q810 713.227 810 575.729q0-136.242-96.327-232.985Q617.346 246 479.729 246q-136.242 0-232.985 96.327Q150 438.654 150 576.271q0 136.242 96.387 232.985Q342.773 906 480.271 906ZM480 576Z"/></svg>