<svg xmlns="http://www.w3.org/2000/svg" height="48" viewBox="0 96 960 960" width="48"><path d="M-10 826v-63.925q0-42.096 43.5-69.085Q77 666 150.376 666H164q7 0 13 .652-9 20.348-14.68 40.615-5.681 20.267-5.681 43.556V826H-10Zm240 0v-75q0-36 17.978-64.185Q265.955 658.63 299 638q33.867-20 80.086-31 46.218-11 100.504-11 55.331 0 101.521 11T661 638q33 21 51 49t18 64v75H230Zm573 0v-75.571q0-22.638-5-43.707-5-21.07-13-39.995 6-.727 12.243-.727H810q73.4 0 116.7 26.186Q970 718.371 970 763v63H803Zm-484-77h322v-6q-8-32-50.5-51.5T480 672q-68 0-111 20t-50 52v5ZM149.824 638Q119 638 96.5 615.727 74 593.454 74 561.997q0-31.661 22.567-53.829T149.975 486Q181 486 204 508.128q23 22.129 23 53.969Q227 593 204.561 615.5 182.123 638 149.824 638Zm660 0Q779 638 756.5 615.727q-22.5-22.273-22.5-53.73 0-31.661 22.567-53.829T809.975 486Q841 486 864 508.128q23 22.129 23 53.969Q887 593 864.561 615.5 842.123 638 809.824 638Zm-328.862-72q-53.342 0-92.152-38.354T350 435.93q0-54.93 38.81-92.43 38.81-37.5 92.152-37.5 54.909 0 91.973 37.268Q610 380.535 610 435.744q0 53.636-37.065 91.946Q535.871 566 480.962 566Zm.003-77Q501 489 517.5 473.43q16.5-15.57 16.5-38.5Q534 414 517.285 398t-37.25-16Q457 382 442 398.022q-15 16.022-15 37.75Q427 458 441.965 473.5t39 15.5ZM480 749Zm0-313Z"/></svg>